<svg width="407" height="525" viewBox="0 0 407 525" fill="none" xmlns="http://www.w3.org/2000/svg">
<g clip-path="url(#clip0_2_105)">
<rect x="0.5" y="0.5" width="406" height="524" rx="40" fill="url(#paint0_linear_2_105)"/>
<g filter="url(#filter0_f_2_105)">
<path d="M5.35175 321.148C-79.317 257.632 -135.952 427.13 -142.55 496.654L-138.346 529.506L441.414 615.337C474.887 435.749 526.776 70.0523 466.554 43.9731C391.277 11.3741 415.046 179.116 299.649 130.051C140.513 62.3891 15.8773 97.5848 84.4737 169.97C186.163 277.277 122.357 408.922 5.35175 321.148Z" fill="url(#paint1_linear_2_105)"/>
</g>
<g filter="url(#filter1_f_2_105)">
<path d="M86.35 383.646C-6.70783 333.215 -37.9092 509.18 -34.2545 578.92L-25.2839 610.802H560.794C567.606 428.248 565.38 58.8947 501.987 41.9162C422.747 20.6931 470.827 183.145 349.487 151.509C182.158 107.883 64.0211 160.952 142.479 222.511C258.787 313.768 214.948 453.338 86.35 383.646Z" fill="url(#paint2_linear_2_105)"/>
</g>
<path d="M135.321 413.972C40.8431 403.952 23.7845 526.702 27.065 589.33L35.1172 617.96H561.189C567.303 454.025 565.305 122.344 508.403 107.097C437.276 88.0386 421.619 182.25 371.517 205.512C321.415 228.774 218.527 190.302 251.63 273.508C284.733 356.713 253.419 426.498 135.321 413.972Z" fill="url(#paint3_linear_2_105)"/>
<g filter="url(#filter2_f_2_105)">
<path d="M206.896 486.442C128.164 474.99 122.796 549.666 129.953 588.435V609.013L524.508 600.961L511.087 274.402C501.842 299.453 473.332 349.019 433.25 346.871C383.548 344.209 381.39 367.959 375.245 435.591L375.096 437.234C368.833 506.125 305.311 500.757 206.896 486.442Z" fill="url(#paint4_linear_2_105)"/>
</g>
</g>
<rect x="0.5" y="0.5" width="406" height="524" rx="40" stroke="#190F79"/>
<defs>
<filter id="filter0_f_2_105" x="-242.55" y="-60.2645" width="836.79" height="775.602" filterUnits="userSpaceOnUse" color-interpolation-filters="sRGB">
<feFlood flood-opacity="0" result="BackgroundImageFix"/>
<feBlend mode="normal" in="SourceGraphic" in2="BackgroundImageFix" result="shape"/>
<feGaussianBlur stdDeviation="0" result="effect1_foregroundBlur_2_105"/>
</filter>
<filter id="filter1_f_2_105" x="-134.538" y="-60.0032" width="797.964" height="770.805" filterUnits="userSpaceOnUse" color-interpolation-filters="sRGB">
<feFlood flood-opacity="0" result="BackgroundImageFix"/>
<feBlend mode="normal" in="SourceGraphic" in2="BackgroundImageFix" result="shape"/>
<feGaussianBlur stdDeviation="0" result="effect1_foregroundBlur_2_105"/>
</filter>
<filter id="filter2_f_2_105" x="27.6462" y="174.402" width="596.861" height="534.611" filterUnits="userSpaceOnUse" color-interpolation-filters="sRGB">
<feFlood flood-opacity="0" result="BackgroundImageFix"/>
<feBlend mode="normal" in="SourceGraphic" in2="BackgroundImageFix" result="shape"/>
<feGaussianBlur stdDeviation="0" result="effect1_foregroundBlur_2_105"/>
</filter>
<linearGradient id="paint0_linear_2_105" x1="138.089" y1="132.47" x2="-91.1999" y2="21.7064" gradientUnits="userSpaceOnUse">
<stop offset="0.0576923" stop-color="#CD11B1"/>
<stop offset="0.483271" stop-color="#CD1111"/>
<stop offset="1" stop-color="#FF5619"/>
</linearGradient>
<linearGradient id="paint1_linear_2_105" x1="200.758" y1="117.425" x2="385.281" y2="272.733" gradientUnits="userSpaceOnUse">
<stop stop-color="#2711FF"/>
<stop offset="1" stop-color="#190F79"/>
</linearGradient>
<linearGradient id="paint2_linear_2_105" x1="249.814" y1="153.502" x2="455.092" y2="280.112" gradientUnits="userSpaceOnUse">
<stop stop-color="#2711FF"/>
<stop offset="1" stop-color="#190F79"/>
</linearGradient>
<linearGradient id="paint3_linear_2_105" x1="282.049" y1="207.301" x2="466.353" y2="320.926" gradientUnits="userSpaceOnUse">
<stop stop-color="#2711FF"/>
<stop offset="1" stop-color="#190F79"/>
</linearGradient>
<linearGradient id="paint4_linear_2_105" x1="358.097" y1="311.084" x2="326.077" y2="609.013" gradientUnits="userSpaceOnUse">
<stop stop-color="#CD1111"/>
<stop offset="0.826923" stop-color="#FF7519"/>
</linearGradient>
<clipPath id="clip0_2_105">
<rect x="0.5" y="0.5" width="406" height="524" rx="40" fill="white"/>
</clipPath>
</defs>
</svg>
