<svg width="108" height="107" viewBox="0 0 108 107" fill="none" xmlns="http://www.w3.org/2000/svg">
<rect x="108" y="107" width="108" height="107" rx="24" transform="rotate(180 108 107)" fill="url(#paint0_linear_2_117)"/>
<path d="M74.6852 31.5595C78.5556 32.5706 81 36.2103 81 40.0522L81 66.9456C81 70.7875 78.3519 74.225 74.6852 75.4382L57.9815 80.4934C55.1296 81.3022 51.8704 81.3022 49.0185 80.4934L32.3148 75.6404C28.6482 74.4272 26 70.7875 26 66.9456L26 40.0522C26 36.2103 28.6481 32.7728 32.3148 31.5595L49.0185 26.7066C51.8704 25.8978 55.1296 25.8978 57.9815 26.7066L74.6852 31.5595Z" fill="#2565F4"/>
<path d="M63.8571 41.2434L53.9143 44.1078C53.5 44.1078 53.2929 44.3124 52.8786 44.1078L42.9357 41.2434C40.8643 40.6295 39 42.0618 39 44.1078L39 66.2053C39 66.6145 39.2071 67.0237 39.6214 67.0237L43.35 68.0468C43.9714 68.2514 44.3857 67.8422 44.3857 67.2283L44.3857 62.1132C44.3857 62.1132 44.3857 61.9086 44.5929 61.9086L52.05 64.1592C53.0857 64.3639 54.1214 64.3639 54.95 64.1592L66.1357 60.6809C67.3786 60.4763 68 59.6579 68 58.6349L68 44.3124C68 42.2664 65.9286 40.6295 63.8571 41.2434ZM62.6143 55.975C62.6143 56.1796 62.4071 56.3842 62.2 56.3842L54.1214 58.8395C53.7071 59.0441 53.2929 59.0441 52.8786 58.8395L45.0071 56.5888C44.8 56.5888 44.5929 56.3842 44.5929 56.1796L44.5929 47.9954C44.5929 47.7908 44.8 47.5861 45.2143 47.5861L51.6357 49.4276C52.8786 49.8368 54.3286 49.8368 55.5714 49.4276L61.9929 47.5861C62.2 47.5861 62.6143 47.7908 62.6143 47.9954L62.6143 55.975Z" fill="white"/>
<defs>
<linearGradient id="paint0_linear_2_117" x1="274" y1="172.621" x2="156" y2="172.621" gradientUnits="userSpaceOnUse">
<stop stop-color="white" stop-opacity="0.2"/>
<stop offset="1" stop-color="white"/>
</linearGradient>
</defs>
</svg>
