<svg width="129" height="129" viewBox="0 0 129 129" fill="none" xmlns="http://www.w3.org/2000/svg">
<rect width="129" height="129" rx="24" fill="url(#paint0_linear_2_125)"/>
<path d="M31.4633 93.9281C29.4542 93.9281 27.6486 93.3727 26.0375 92.3212C24.8831 91.5716 23.9803 90.5093 23.2701 89.3014C22.4155 87.7916 22.0069 86.0876 22.0069 84.2775C21.9588 83.1181 22.1639 81.9696 22.56 80.8587C22.9579 79.7479 24.3157 76.4855 25.8198 73.419L42.8198 36.1216C42.9768 35.7711 43.3729 35.5177 43.7708 35.5177H51.6623C52.4206 35.5177 52.9131 36.2672 52.6133 36.979L36.2878 77.2962C36.0826 77.5981 35.9381 77.8516 35.8899 78.105C35.7935 78.3585 35.7935 78.5526 35.7935 78.7575C35.7935 79.2051 35.9505 79.5664 36.2503 79.809C36.5518 80.0625 36.8998 80.1595 37.2602 80.1595C37.4653 80.1595 37.7169 80.111 37.9578 80.0139C38.2111 79.9169 38.5109 79.7605 38.8606 79.5664L47.1019 74.1919C47.9565 73.6365 49.2679 72.984 51.0236 72.1878C52.7793 71.4382 54.7419 71.0284 56.9543 71.0284C59.313 71.0284 61.2257 71.476 62.7298 72.4412C64.2339 73.3957 65.3401 74.6036 66.0984 76.1134C66.8567 77.6233 67.2046 79.2788 67.2046 81.1373V92.0444C67.2046 92.7939 66.6033 93.3493 65.8932 93.3493H56.039C55.2807 93.3493 54.7276 92.7454 54.7276 92.0444V87.0672C54.7276 86.2098 54.5224 85.4602 54.1745 84.8078C53.8248 84.1553 53.1165 83.8533 52.0085 83.8533C51.6588 83.8533 51.2502 83.9504 50.8541 84.1068C50.4562 84.2523 49.9994 84.5058 49.5427 84.8563L40.147 91.2463C38.8963 92.0551 37.4885 92.7562 36.0808 93.2505C34.6249 93.7573 33.1208 94 31.4615 94V93.9281H31.4633Z" fill="url(#paint1_linear_2_125)"/>
<path d="M96.7601 35.0485C98.7245 35.0485 100.487 35.6039 102.065 36.6555C103.194 37.405 104.075 38.4673 104.769 39.677C105.604 41.1869 105.993 42.8909 105.993 44.7027C106.04 45.8621 105.84 47.0107 105.453 48.1215C105.064 49.2323 103.735 52.4947 102.266 55.5648L85.6605 92.8766C85.5071 93.2271 85.1199 93.4805 84.7309 93.4805H77.016C76.2755 93.4805 75.792 92.731 76.0864 92.0192L92.0462 51.6859C92.246 51.3839 92.387 51.1305 92.4352 50.877C92.5297 50.6236 92.5297 50.4294 92.5297 50.2245C92.5297 49.777 92.3763 49.4157 92.0837 49.173C91.7893 48.9196 91.4485 48.8225 91.0952 48.8225C90.8954 48.8225 90.6492 48.871 90.4136 48.9681C90.1674 49.0652 89.873 49.2215 89.5323 49.4157L81.4765 54.7919C80.6415 55.3473 79.3587 55.9998 77.6422 56.7979C75.9258 57.5474 74.0078 57.9572 71.8436 57.9572C69.5384 57.9572 67.6685 57.5097 66.1983 56.5426C64.7281 55.5882 63.6469 54.3803 62.9046 52.8686C62.1642 51.3587 61.8234 49.7033 61.8234 47.8429V36.9574C61.8234 36.2079 62.4122 35.6525 63.1045 35.6525H72.7357C73.4761 35.6525 74.0185 36.2564 74.0185 36.9574V41.9364C74.0185 42.7938 74.2183 43.5434 74.5591 44.1958C74.8999 44.8483 75.594 45.1503 76.6752 45.1503C77.016 45.1503 77.4156 45.0532 77.8046 44.8968C78.1918 44.7512 78.6396 44.4978 79.0857 44.1473L88.2708 37.7555C89.4948 36.9467 90.8704 36.2456 92.246 35.7495C93.6698 35.2427 95.1382 35 96.7619 35V35.0485H96.7601Z" fill="url(#paint2_linear_2_125)"/>
<defs>
<linearGradient id="paint0_linear_2_125" x1="122.53" y1="4.85266" x2="-3.57086e-06" y2="121.317" gradientUnits="userSpaceOnUse">
<stop stop-color="white" stop-opacity="0.8"/>
<stop offset="1" stop-color="white"/>
</linearGradient>
<linearGradient id="paint1_linear_2_125" x1="26.2268" y1="60.9857" x2="165.008" y2="112.617" gradientUnits="userSpaceOnUse">
<stop stop-color="#16E8AE"/>
<stop offset="0.52" stop-color="#00C5D1"/>
<stop offset="1" stop-color="#5A4DFB"/>
</linearGradient>
<linearGradient id="paint2_linear_2_125" x1="26.2033" y1="51.7326" x2="107.891" y2="68.2326" gradientUnits="userSpaceOnUse">
<stop stop-color="#00D873"/>
<stop offset="0.52" stop-color="#00C5D1"/>
<stop offset="1" stop-color="#5A4DFB"/>
</linearGradient>
</defs>
</svg>
