<svg width="237" height="237" viewBox="0 0 237 237" fill="none" xmlns="http://www.w3.org/2000/svg">
<g filter="url(#filter0_d_2_125)">
<rect x="54" y="22" width="129" height="129" rx="24" fill="url(#paint0_linear_2_125)" shape-rendering="crispEdges"/>
</g>
<path d="M85.4633 115.928C83.4542 115.928 81.6486 115.373 80.0375 114.321C78.8831 113.572 77.9803 112.509 77.2701 111.301C76.4155 109.792 76.0069 108.088 76.0069 106.278C75.9588 105.118 76.1639 103.97 76.56 102.859C76.9579 101.748 78.3157 98.4855 79.8198 95.419L96.8198 58.1216C96.9768 57.7711 97.3729 57.5177 97.7708 57.5177H105.662C106.421 57.5177 106.913 58.2672 106.613 58.979L90.2878 99.2962C90.0826 99.5981 89.9381 99.8516 89.8899 100.105C89.7935 100.358 89.7935 100.553 89.7935 100.757C89.7935 101.205 89.9505 101.566 90.2503 101.809C90.5518 102.062 90.8998 102.16 91.2602 102.16C91.4653 102.16 91.7169 102.111 91.9578 102.014C92.2111 101.917 92.5109 101.76 92.8606 101.566L101.102 96.1919C101.957 95.6365 103.268 94.984 105.024 94.1878C106.779 93.4382 108.742 93.0284 110.954 93.0284C113.313 93.0284 115.226 93.476 116.73 94.4412C118.234 95.3957 119.34 96.6036 120.098 98.1134C120.857 99.6233 121.205 101.279 121.205 103.137V114.044C121.205 114.794 120.603 115.349 119.893 115.349H110.039C109.281 115.349 108.728 114.745 108.728 114.044V109.067C108.728 108.21 108.522 107.46 108.175 106.808C107.825 106.155 107.116 105.853 106.008 105.853C105.659 105.853 105.25 105.95 104.854 106.107C104.456 106.252 103.999 106.506 103.543 106.856L94.147 113.246C92.8963 114.055 91.4885 114.756 90.0808 115.25C88.6249 115.757 87.1208 116 85.4615 116V115.928H85.4633Z" fill="url(#paint1_linear_2_125)"/>
<path d="M150.76 57.0485C152.725 57.0485 154.487 57.6039 156.065 58.6555C157.194 59.405 158.075 60.4673 158.769 61.677C159.604 63.1869 159.993 64.8909 159.993 66.7027C160.04 67.8621 159.84 69.0107 159.453 70.1215C159.064 71.2323 157.735 74.4947 156.266 77.5648L139.661 114.877C139.507 115.227 139.12 115.481 138.731 115.481H131.016C130.276 115.481 129.792 114.731 130.086 114.019L146.046 73.6859C146.246 73.3839 146.387 73.1305 146.435 72.877C146.53 72.6236 146.53 72.4294 146.53 72.2245C146.53 71.777 146.376 71.4157 146.084 71.173C145.789 70.9196 145.448 70.8225 145.095 70.8225C144.895 70.8225 144.649 70.871 144.414 70.9681C144.167 71.0652 143.873 71.2215 143.532 71.4157L135.477 76.7919C134.642 77.3473 133.359 77.9998 131.642 78.7979C129.926 79.5474 128.008 79.9572 125.844 79.9572C123.538 79.9572 121.668 79.5097 120.198 78.5426C118.728 77.5882 117.647 76.3803 116.905 74.8686C116.164 73.3587 115.823 71.7033 115.823 69.8429V58.9574C115.823 58.2079 116.412 57.6525 117.104 57.6525H126.736C127.476 57.6525 128.019 58.2564 128.019 58.9574V63.9364C128.019 64.7938 128.218 65.5434 128.559 66.1958C128.9 66.8483 129.594 67.1503 130.675 67.1503C131.016 67.1503 131.416 67.0532 131.805 66.8968C132.192 66.7512 132.64 66.4978 133.086 66.1473L142.271 59.7555C143.495 58.9467 144.87 58.2456 146.246 57.7495C147.67 57.2427 149.138 57 150.762 57V57.0485H150.76Z" fill="url(#paint2_linear_2_125)"/>
<defs>
<filter id="filter0_d_2_125" x="0" y="0" width="237" height="237" filterUnits="userSpaceOnUse" color-interpolation-filters="sRGB">
<feFlood flood-opacity="0" result="BackgroundImageFix"/>
<feColorMatrix in="SourceAlpha" type="matrix" values="0 0 0 0 0 0 0 0 0 0 0 0 0 0 0 0 0 0 127 0" result="hardAlpha"/>
<feOffset dy="32"/>
<feGaussianBlur stdDeviation="27"/>
<feComposite in2="hardAlpha" operator="out"/>
<feColorMatrix type="matrix" values="0 0 0 0 0 0 0 0 0 0 0 0 0 0 0 0 0 0 0.25 0"/>
<feBlend mode="normal" in2="BackgroundImageFix" result="effect1_dropShadow_2_125"/>
<feBlend mode="normal" in="SourceGraphic" in2="effect1_dropShadow_2_125" result="shape"/>
</filter>
<linearGradient id="paint0_linear_2_125" x1="176.53" y1="26.8527" x2="54" y2="143.317" gradientUnits="userSpaceOnUse">
<stop stop-color="white" stop-opacity="0.8"/>
<stop offset="1" stop-color="white"/>
</linearGradient>
<linearGradient id="paint1_linear_2_125" x1="80.2268" y1="82.9857" x2="219.008" y2="134.617" gradientUnits="userSpaceOnUse">
<stop stop-color="#16E8AE"/>
<stop offset="0.52" stop-color="#00C5D1"/>
<stop offset="1" stop-color="#5A4DFB"/>
</linearGradient>
<linearGradient id="paint2_linear_2_125" x1="80.2033" y1="73.7326" x2="161.891" y2="90.2326" gradientUnits="userSpaceOnUse">
<stop stop-color="#00D873"/>
<stop offset="0.52" stop-color="#00C5D1"/>
<stop offset="1" stop-color="#5A4DFB"/>
</linearGradient>
</defs>
</svg>
