<svg width="196" height="195" viewBox="0 0 196 195" fill="none" xmlns="http://www.w3.org/2000/svg">
<g filter="url(#filter0_d_2_124)">
<rect x="146.88" y="81.3965" width="78" height="77" rx="24" transform="rotate(161.419 146.88 81.3965)" fill="white"/>
</g>
<path d="M115.392 45.8757L113.526 40.5207C113.194 39.5658 112.155 39.0537 111.214 39.3815C110.999 39.4564 110.803 39.5718 110.627 39.7222L100.272 48.7043L100.765 34.8801C100.787 34.274 100.511 33.6958 100.026 33.3318C99.5416 32.9678 98.9144 32.8714 98.348 33.0687L93.0589 34.9111C92.3515 35.1575 91.8773 35.8055 91.8484 36.5636L91.5692 44.3793L86.4945 38.4285C86.0033 37.8516 85.2291 37.6384 84.5194 37.8856L79.2302 39.728C78.6639 39.9253 78.2331 40.3929 78.0788 40.9768C77.9245 41.5607 78.0678 42.1879 78.4617 42.649L87.4584 53.1991L73.6919 52.5907C73.4599 52.5796 73.2357 52.6131 73.0207 52.688C72.0775 53.0165 71.583 54.0601 71.9165 55.0173L73.7818 60.3723C74.0312 61.0885 74.6767 61.5723 75.4277 61.6073L83.1705 61.9493L77.3158 67.0278C76.7483 67.5194 76.5431 68.2995 76.7933 69.018L78.6587 74.373C78.9913 75.3279 80.0303 75.84 80.9711 75.5122C81.1861 75.4374 81.3818 75.322 81.5575 75.1715L91.9951 66.1189L91.4981 80.052C91.476 80.6581 91.7525 81.2363 92.237 81.6003C92.7215 81.9642 93.3488 82.0607 93.9151 81.8634L99.2043 80.021C99.9117 79.7746 100.386 79.1266 100.415 78.3685L100.694 70.5527L105.769 76.5036C106.26 77.0804 107.034 77.2937 107.744 77.0465L113.033 75.2041C113.599 75.0068 114.03 74.5392 114.184 73.9553C114.338 73.3691 114.195 72.7442 113.801 72.2831L104.775 61.6989L118.502 62.3053C118.734 62.3164 118.958 62.2829 119.173 62.208C120.116 61.8795 120.611 60.8359 120.277 59.8786L118.412 54.5236C118.162 53.8075 117.517 53.3237 116.766 53.2887L109.023 52.9467L114.878 47.8682C115.445 47.3766 115.65 46.5965 115.4 45.8779L115.392 45.8757ZM99.8765 59.5734C99.7636 60.0011 99.8658 60.4432 100.158 60.7824L110.513 72.9248L107.459 73.9885L100.232 65.5145C99.8694 65.0898 99.3211 64.937 98.7986 65.119C98.2762 65.301 97.9391 65.7622 97.9208 66.3197L97.5231 77.4494L94.4716 78.5123L95.0421 62.5354C95.0577 62.0891 94.8631 61.6792 94.5113 61.4134C94.1563 61.146 93.7 61.0713 93.2908 61.2139C93.136 61.2678 92.9917 61.3522 92.8618 61.463L80.8936 71.844L79.8166 68.7523L88.1536 61.5205C88.5714 61.1571 88.7186 60.6046 88.5343 60.0757C88.3501 59.5467 87.8907 59.2028 87.3384 59.18L76.3126 58.6929L75.2365 55.6035L91.0355 56.3018C91.2069 56.3103 91.3716 56.2844 91.5265 56.2305C91.9333 56.0888 92.2445 55.7468 92.3588 55.3159C92.4717 54.8882 92.3695 54.4461 92.0777 54.1069L81.749 42.0026L84.8004 40.9397L92.0267 49.4138C92.3898 49.8384 92.9381 49.9912 93.4606 49.8092C93.983 49.6272 94.3201 49.166 94.3384 48.6085L94.7361 37.4788L97.7899 36.4151L97.2238 52.2855C97.2082 52.7318 97.4028 53.1417 97.7546 53.4075C98.1096 53.6749 98.5659 53.7496 98.9751 53.607C99.1299 53.5531 99.2742 53.4687 99.4041 53.3579L111.293 43.0465L112.369 46.1359L104.032 53.3677C103.614 53.7311 103.467 54.2836 103.651 54.8125C103.836 55.3415 104.295 55.6854 104.847 55.7082L115.873 56.1953L116.95 59.287L101.198 58.5907C101.027 58.5821 100.862 58.608 100.707 58.662C100.3 58.8037 99.9893 59.1456 99.875 59.5765L99.8765 59.5734Z" fill="url(#paint0_linear_2_124)"/>
<defs>
<filter id="filter0_d_2_124" x="-6.38984" y="-6.3899" width="208.07" height="207.44" filterUnits="userSpaceOnUse" color-interpolation-filters="sRGB">
<feFlood flood-opacity="0" result="BackgroundImageFix"/>
<feColorMatrix in="SourceAlpha" type="matrix" values="0 0 0 0 0 0 0 0 0 0 0 0 0 0 0 0 0 0 127 0" result="hardAlpha"/>
<feOffset dy="40"/>
<feGaussianBlur stdDeviation="27.4"/>
<feComposite in2="hardAlpha" operator="out"/>
<feColorMatrix type="matrix" values="0 0 0 0 0 0 0 0 0 0 0 0 0 0 0 0 0 0 0.3 0"/>
<feBlend mode="normal" in2="BackgroundImageFix" result="effect1_dropShadow_2_124"/>
<feBlend mode="normal" in="SourceGraphic" in2="effect1_dropShadow_2_124" result="shape"/>
</filter>
<linearGradient id="paint0_linear_2_124" x1="92.2155" y1="78.4427" x2="99.7013" y2="40.1895" gradientUnits="userSpaceOnUse">
<stop stop-color="#FF0076"/>
<stop offset="1" stop-color="#FF7352"/>
</linearGradient>
</defs>
</svg>
