<svg width="108" height="107" viewBox="0 0 108 107" fill="none" xmlns="http://www.w3.org/2000/svg">
<rect width="108" height="107" rx="24" fill="url(#paint0_linear_2_113)"/>
<path d="M53.8718 46.6053C50.9316 46.6053 48.5245 49.0125 48.5245 51.9699C48.5245 54.9273 50.9144 57.3173 53.8718 57.3173C56.8291 57.3173 59.2191 54.9273 59.2191 51.9699C59.2191 49.0125 56.8291 46.6053 53.8718 46.6053Z" fill="#3E33BB"/>
<path d="M79.0781 42.152L59.4598 27.8809C56.1242 25.4565 51.6022 25.4565 48.2666 27.8809L28.6655 42.152C25.3299 44.5764 23.9372 48.8921 25.2096 52.8124L32.7061 75.9213C33.9785 79.8416 37.6408 82.5067 41.7501 82.5067H65.9935C70.1201 82.5067 73.7652 79.8416 75.0375 75.9213L82.5341 52.8124C83.8064 48.8921 82.4137 44.5764 79.0781 42.152ZM56.812 71.5884C56.812 73.2219 55.4537 74.5286 53.8202 74.5114C52.1868 74.5114 50.8801 73.1531 50.8973 71.5196V69.4563C50.9317 68.9577 51.3443 68.5794 51.8257 68.5794L55.9523 68.631C56.4337 68.631 56.8292 69.0437 56.8292 69.5423V71.6056H56.812V71.5884ZM61.695 60.2747H61.6778L61.2308 60.6873L61.1276 60.7733L57.7061 63.7823C57.345 64.0918 56.8979 64.2637 56.4165 64.2637H51.3271C50.8457 64.2637 50.3986 64.0918 50.0376 63.7823L45.9798 60.2231C45.9798 60.2231 45.9282 60.1715 45.911 60.1543C43.6242 57.9191 42.2659 54.7554 42.4723 51.2821C42.8161 45.5221 47.5617 40.8281 53.3044 40.5358C59.8553 40.2091 65.2886 45.4705 65.2886 51.9699C65.2886 55.2368 63.8959 58.1942 61.695 60.2919V60.2747Z" fill="#3E33BB"/>
<defs>
<linearGradient id="paint0_linear_2_113" x1="211" y1="65.621" x2="41" y2="65.621" gradientUnits="userSpaceOnUse">
<stop stop-color="white" stop-opacity="0.2"/>
<stop offset="1" stop-color="white"/>
</linearGradient>
</defs>
</svg>
