<svg id="Layer_1" data-name="Layer 1" xmlns="http://www.w3.org/2000/svg" viewBox="0 0 30.46 30.77"><path d="M14.29,9a5.93,5.93,0,0,1,7.15,4.53c0,.22.1.63.12.85a.63.63,0,0,1-.48.66l-7.42,1.62a2.36,2.36,0,0,0,2.83,1.52,4.12,4.12,0,0,0,2-1.22.56.56,0,0,1,.77-.17l2,1.52a.69.69,0,0,1,.16.91A6.49,6.49,0,0,1,17.19,22a6.65,6.65,0,0,1-2.9-13Zm2.55,4.43a1.69,1.69,0,0,0-1.95-1.09,1.75,1.75,0,0,0-1.35,1.82Z" style="fill:#fff"/><path d="M25.8,29.63H4.91A3.68,3.68,0,0,1,1.23,26V5.06A3.68,3.68,0,0,1,4.91,1.38H25.8a3.68,3.68,0,0,1,3.68,3.68V26A3.68,3.68,0,0,1,25.8,29.63ZM5,25.89H25.74V5.13H5Z" style="fill:#fff"/></svg>