<svg id="Layer_1" data-name="Layer 1" xmlns="http://www.w3.org/2000/svg" viewBox="0 0 30.46 30.77"><path d="M19.81,12.24l-3.5,1a3.52,3.52,0,0,1-2.13,0l-3.53-1.06a.23.23,0,0,0-.29.22v4.47a.29.29,0,0,0,.21.27l4.31,1.29a1.25,1.25,0,0,0,.69,0l4.35-1.31a.28.28,0,0,0,.2-.27V12.47A.24.24,0,0,0,19.81,12.24Z" style="fill:#fff"/><path d="M27,3.11,17.71.36a8.72,8.72,0,0,0-5,0L3.49,3.11A5,5,0,0,0,0,7.87v15a5,5,0,0,0,3.49,4.77l9.26,2.75a8.72,8.72,0,0,0,5,0L27,27.66a5,5,0,0,0,3.49-4.77v-15A5,5,0,0,0,27,3.11ZM23.12,18.32a1.33,1.33,0,0,1-.95,1.27L16,21.46a2.66,2.66,0,0,1-1.58,0l-4-1.19s-.08,0-.08.06v3a.47.47,0,0,1-.61.45l-2-.61a.48.48,0,0,1-.34-.46V10.46A1.68,1.68,0,0,1,9.51,8.84L15,10.45a1,1,0,0,0,.53,0l5.38-1.61a1.74,1.74,0,0,1,2.26,1.66Z" style="fill:#fff"/></svg>