<svg id="Layer_1" data-name="Layer 1" xmlns="http://www.w3.org/2000/svg" viewBox="0 0 30.46 30.77"><path d="M15.12,22.44h.66a5.65,5.65,0,0,0,5-3.06l.74-1.44a.79.79,0,0,0-.33-1.06.8.8,0,0,0-.36-.09h-7a.79.79,0,0,0-.79.79.59.59,0,0,0,0,.23l1.27,4.08A.78.78,0,0,0,15.12,22.44Z" style="fill:#fff"/><path d="M28.19,10.84,29.14,9A.8.8,0,0,0,28.8,8a.78.78,0,0,0-.37-.09H11.08a.8.8,0,0,0-.81.8,1,1,0,0,0,0,.24l1.37,4.37a.78.78,0,0,0,.76.56H23.23A5.58,5.58,0,0,0,28.19,10.84Z" style="fill:#fff"/><path d="M7.08,8.49a.9.9,0,0,0-.86-.63H2.13a.9.9,0,0,0-.9.9,1.26,1.26,0,0,0,0,.27L6.35,25a.9.9,0,0,0,.86.63H11.3a.9.9,0,0,0,.9-.9.8.8,0,0,0,0-.27Z" style="fill:#fff"/></svg>