<svg width="19" height="19" viewBox="0 0 19 19" fill="none" xmlns="http://www.w3.org/2000/svg">
<path opacity="0.25" d="M9.06854 7.90479C7.94517 8.23492 6.60646 8.40512 5.05717 8.41621C5.37779 7.10679 6.25892 6.01746 7.43454 5.42054C8.04967 6.22488 8.59354 7.05375 9.06854 7.90479ZM9.8325 9.43271C9.73433 9.21104 9.63142 8.99017 9.52296 8.77167C8.23888 9.17542 6.70383 9.38046 4.92812 9.38283L4.92179 9.5C4.92179 10.6115 5.32079 11.6312 5.98263 12.4252C6.98488 10.9202 8.27133 9.92037 9.8325 9.43271ZM6.68958 13.1068C7.93171 14.0766 9.59579 14.3648 11.1419 13.7687C10.9424 12.5907 10.6273 11.4412 10.1998 10.3233C8.75979 10.7524 7.59921 11.6803 6.68958 13.1068ZM12.2906 5.87892C11.5172 5.282 10.5513 4.92179 9.5 4.92179C9.11208 4.92179 8.73683 4.97563 8.37742 5.06746C8.98225 5.88129 9.51821 6.71887 9.98846 7.57863C10.967 7.16379 11.7333 6.59696 12.2906 5.87892ZM19 9.5C19 14.7464 14.7464 19 9.5 19C4.25363 19 0 14.7464 0 9.5C0 4.25363 4.25363 0 9.5 0C14.7464 0 19 4.25363 19 9.5ZM15.0417 9.5C15.0417 6.43942 12.5598 3.95833 9.5 3.95833C6.44021 3.95833 3.95833 6.43942 3.95833 9.5C3.95833 12.5606 6.44021 15.0417 9.5 15.0417C12.5598 15.0417 15.0417 12.5606 15.0417 9.5ZM10.431 8.43204C10.5553 8.68854 10.6725 8.94742 10.7849 9.20788C11.7824 9.03608 12.8757 9.04638 14.0648 9.24113C14.007 8.21829 13.6167 7.28254 12.9928 6.54708C12.354 7.34271 11.4966 7.9705 10.431 8.43204ZM11.1546 10.1199C11.5417 11.1562 11.8394 12.2186 12.0405 13.3048C13.0791 12.6081 13.8146 11.4966 14.0173 10.2101C12.9746 10.0296 12.0207 9.99796 11.1546 10.1199Z" fill="white"/>
</svg>
