<svg width="18" height="15" viewBox="0 0 18 15" fill="none" xmlns="http://www.w3.org/2000/svg">
<path opacity="0.25" d="M15.2477 1.25625C14.0825 0.669375 12.8367 0.242861 11.5342 0C11.3742 0.311339 11.1873 0.730097 11.0585 1.06322C9.67387 0.839056 8.30201 0.839056 6.94287 1.06322C6.81404 0.730097 6.62292 0.311339 6.46152 0C5.15761 0.242861 3.91032 0.670942 2.74514 1.25935C0.394982 5.08252 -0.242108 8.81073 0.0764375 12.486C1.63519 13.7391 3.14581 14.5003 4.63093 14.9985C4.99762 14.4552 5.32465 13.8777 5.60638 13.269C5.06981 13.0495 4.5559 12.7787 4.07031 12.4642C4.19913 12.3615 4.32514 12.254 4.44689 12.1435C7.40865 13.6348 10.6267 13.6348 13.5531 12.1435C13.6762 12.254 13.8022 12.3615 13.9296 12.4642C13.4426 12.7802 12.9273 13.0511 12.3907 13.2706C12.6724 13.8777 12.9981 14.4567 13.3662 15C14.8527 14.5019 16.3647 13.7407 17.9235 12.486C18.2973 8.22542 17.285 4.53146 15.2477 1.25625ZM6.00988 10.2257C5.12079 10.2257 4.39166 9.3322 4.39166 8.24409C4.39166 7.15599 5.10522 6.26091 6.00988 6.26091C6.91457 6.26091 7.64367 7.15442 7.6281 8.24409C7.62951 9.3322 6.91457 10.2257 6.00988 10.2257ZM11.9901 10.2257C11.101 10.2257 10.3718 9.3322 10.3718 8.24409C10.3718 7.15599 11.0854 6.26091 11.9901 6.26091C12.8947 6.26091 13.6238 7.15442 13.6083 8.24409C13.6083 9.3322 12.8947 10.2257 11.9901 10.2257Z" fill="white"/>
</svg>
