<svg width="17" height="15" viewBox="0 0 17 15" fill="none" xmlns="http://www.w3.org/2000/svg">
<path opacity="0.25" d="M16.6148 1.73112C16.3477 1.85876 16.0731 1.9665 15.7926 2.05399C16.1247 1.64914 16.378 1.17279 16.5326 0.651541C16.5672 0.534709 16.5313 0.406819 16.4422 0.330386C16.3532 0.253918 16.2295 0.244757 16.1315 0.307342C15.5357 0.688183 14.8929 0.961889 14.2189 1.12191C13.5399 0.406927 12.6178 0 11.6644 0C9.65213 0 8.01498 1.76433 8.01498 3.93293C8.01498 4.10373 8.02501 4.27359 8.04486 4.44109C5.54779 4.20481 3.22629 2.88209 1.63215 0.774635C1.57534 0.699526 1.48781 0.65902 1.3982 0.666784C1.30855 0.674335 1.22797 0.728832 1.18268 0.812601C0.859344 1.4105 0.688415 2.09436 0.688415 2.79016C0.688415 3.73784 1.00235 4.63697 1.55694 5.33957C1.3883 5.27663 1.22468 5.19798 1.06849 5.10455C0.984653 5.05424 0.882321 5.05502 0.799014 5.10648C0.715674 5.15797 0.663413 5.25262 0.661188 5.3561C0.66079 5.37353 0.66079 5.39096 0.66079 5.40863C0.66079 6.82318 1.36722 8.09674 2.44728 8.79086C2.35448 8.78088 2.26178 8.76639 2.16964 8.74742C2.07464 8.72785 1.97699 8.76374 1.91295 8.84182C1.8488 8.91982 1.82755 9.02857 1.85713 9.12787C2.2569 10.473 3.28616 11.4624 4.53045 11.764C3.49843 12.4606 2.31826 12.8255 1.07935 12.8255C0.820829 12.8255 0.560848 12.8092 0.306413 12.7767C0.180008 12.7605 0.0591491 12.8409 0.0160846 12.9705C-0.0269798 13.1001 0.0186745 13.2446 0.126186 13.3189C1.71778 14.4187 3.55809 15 5.44811 15C9.16364 15 11.488 13.1118 12.7835 11.5277C14.3991 9.55251 15.3256 6.93811 15.3256 4.35492C15.3256 4.247 15.3241 4.13804 15.321 4.0294C15.9584 3.51187 16.5072 2.88552 16.9537 2.16564C17.0216 2.05632 17.0142 1.91179 16.9356 1.81117C16.8572 1.71037 16.7264 1.6778 16.6148 1.73112Z" fill="white"/>
</svg>
