<svg width="24" height="23" viewBox="0 0 24 23" fill="none" xmlns="http://www.w3.org/2000/svg">
<rect x="6.54544" y="4.36365" width="10.9091" height="16.3636" fill="white"/>
<path d="M11.9945 8.25975C10.9255 8.26439 10.059 9.14149 10.0636 10.2119C10.0682 11.2808 10.9441 12.1502 12.0114 12.144C13.0804 12.1394 13.9469 11.2654 13.9423 10.1934C13.9377 9.12292 13.0618 8.25511 11.9945 8.25975Z" fill="#3E33BB"/>
<path d="M21.9067 5.86686L14.9185 0.9307C13.1483 -0.319194 10.7603 -0.309913 9.00086 0.956998L2.05752 5.95503C0.299669 7.22194 -0.429421 9.45566 0.253328 11.4883L2.95034 19.5151C3.63309 21.5478 5.57167 22.9183 7.75276 22.909L16.3628 22.8704C18.5439 22.8611 20.4701 21.4735 21.1359 19.4347L23.7603 11.3846C24.4245 9.34583 23.6769 7.1183 21.9067 5.86686ZM13.1051 17.3232C13.1005 17.9172 12.617 18.3952 12.0238 18.3905C11.4306 18.3859 10.9533 17.9017 10.958 17.3077L10.9626 16.5575C10.9626 16.378 11.1094 16.2357 11.2885 16.2357L12.7884 16.2465C12.9676 16.2465 13.1097 16.3935 13.1097 16.5729L13.1051 17.3232ZM14.8552 13.2084L14.8459 13.2146L14.6498 13.3894L13.4109 14.4862C13.2812 14.6006 13.1159 14.6641 12.9444 14.6641L11.0985 14.6718C10.9255 14.6718 10.7603 14.6115 10.629 14.4986L9.42256 13.4498L9.1368 13.2023L9.12444 13.1868H9.12135C8.28722 12.3808 7.78983 11.2315 7.8578 9.97078C7.97211 7.88092 9.68825 6.16541 11.7782 6.05403C14.157 5.92718 16.1404 7.82214 16.1512 10.1812C16.1558 11.3707 15.6584 12.4443 14.8568 13.2084H14.8552Z" fill="#3E33BB"/>
</svg>
