<svg width="24" height="24" viewBox="0 0 24 24" fill="none" xmlns="http://www.w3.org/2000/svg">
<g clip-path="url(#clip0_12_422)">
<path d="M20.6667 4.93152H4V20.0548H20.6667V4.93152Z" fill="white"/>
<path d="M15.4713 9.46L12.7365 10.2307C12.1895 10.3848 11.6426 10.3848 11.0956 10.2307L8.3608 9.38293C8.28267 9.38293 8.1264 9.46 8.1264 9.53706V13.0051C8.1264 13.0821 8.20454 13.1592 8.28267 13.2363L11.6426 14.2381C11.7988 14.3152 12.0332 14.3152 12.1895 14.2381L15.5494 13.2363C15.6276 13.2363 15.7057 13.1592 15.7057 13.0051V9.61412C15.7057 9.53706 15.6276 9.46 15.4713 9.46Z" fill="#2266F7"/>
<path d="M21.0973 2.44687L13.8305 0.289001C12.5803 -0.0963336 11.252 -0.0963336 9.92366 0.289001L2.73505 2.44687C1.09417 2.98634 0.000244141 4.45062 0.000244141 6.14607V17.7061C0.000244141 19.4016 1.09417 20.8659 2.73505 21.4053L10.0018 23.5632C11.252 23.9485 12.5803 23.9485 13.9087 23.5632L21.1754 21.4053C22.8163 20.8659 23.9102 19.4016 23.9102 17.7061V6.14607C23.8321 4.45062 22.66 2.98634 21.0973 2.44687ZM18.0499 14.161C18.0499 14.6234 17.7374 15.0088 17.3467 15.1629L12.5022 16.6272C12.1115 16.7813 11.6427 16.7813 11.252 16.6272L8.12653 15.7024C8.12653 15.7024 8.04836 15.7024 8.04836 15.7794V18.0914C8.04836 18.3227 7.81396 18.4768 7.57956 18.3997L5.93866 17.9373C5.7824 17.8602 5.70426 17.7061 5.70426 17.552V8.14981C5.70426 7.30208 6.56376 6.68555 7.42326 6.91673L11.6427 8.14981C11.799 8.22687 11.9552 8.14981 12.0334 8.14981L16.2528 6.91673C17.1123 6.60848 18.0499 7.30208 18.0499 8.22687V14.161Z" fill="#2266F7"/>
</g>
<defs>
<clipPath id="clip0_12_422">
<rect width="24" height="24" fill="white"/>
</clipPath>
</defs>
</svg>
