<svg width="140" height="40" viewBox="0 0 140 40" fill="none" xmlns="http://www.w3.org/2000/svg">
<g clip-path="url(#clip0_1439_124)">
<mask id="mask0_1439_124" style="mask-type:luminance" maskUnits="userSpaceOnUse" x="0" y="0" width="140" height="40">
<path d="M140 0.5H0V39.5H140V0.5Z" fill="white"/>
</mask>
<g mask="url(#mask0_1439_124)">
<path d="M28.4941 9.76978C23.6448 9.76978 19.6978 13.7248 19.6978 18.6025C19.6978 23.4802 23.6395 27.4352 28.4941 27.4352C33.3487 27.4352 37.2904 23.4802 37.2904 18.6025C37.2904 13.7248 33.3487 9.76978 28.4941 9.76978ZM28.4941 22.9406C26.1097 22.9406 24.1657 20.9928 24.1657 18.5971C24.1657 16.2014 26.1044 14.2536 28.4941 14.2536C30.8838 14.2536 32.8224 16.2014 32.8224 18.5971C32.8224 20.9928 30.8838 22.9406 28.4941 22.9406Z" fill="black"/>
<path d="M55.6563 9.63501H53.1001C52.5738 9.63501 52.1442 10.0667 52.1442 10.5954V10.9192C50.8661 10.1908 49.3893 9.7699 47.8158 9.7699C42.9666 9.7699 39.0195 13.7249 39.0195 18.6026C39.0195 23.4803 42.9612 27.4354 47.8158 27.4354C49.3893 27.4354 50.8661 27.0145 52.1442 26.2861V30.7267C52.1442 33.1224 50.1733 35.0649 47.7783 35.0109C45.4798 34.9569 43.6056 32.9498 43.6056 30.6404V29.6368C43.6056 29.108 43.176 28.6764 42.6498 28.6764H40.0936C39.5673 28.6764 39.1377 29.108 39.1377 29.6368V30.5972C39.1377 35.3023 42.7786 39.2735 47.4614 39.4947C52.4718 39.7267 56.6175 35.7069 56.6175 30.7267V10.5954C56.6175 10.0667 56.1879 9.63501 55.6616 9.63501H55.6563ZM47.8158 22.9408C45.4315 22.9408 43.4875 20.9929 43.4875 18.5972C43.4875 16.2016 45.4261 14.2537 47.8158 14.2537C50.2056 14.2537 52.1442 16.2016 52.1442 18.5972C52.1442 20.9929 50.2056 22.9408 47.8158 22.9408Z" fill="black"/>
<path d="M87.308 9.6726C85.6755 9.64022 84.1504 10.0719 82.84 10.8327C82.8293 10.3039 82.3997 9.87763 81.868 9.87763H79.4031C78.8661 9.87763 78.4312 10.3147 78.4312 10.8489V38.0701C78.4312 38.6096 78.8661 39.0413 79.4031 39.0413H81.868C82.4051 39.0413 82.84 38.6043 82.84 38.0701V25.946C84.1128 26.6798 85.5842 27.1061 87.1469 27.1061C92.0606 27.1061 96.0292 22.9945 95.8197 18.0251C95.6318 13.4766 91.8404 9.76432 87.308 9.67799V9.6726ZM87.1469 22.6708C84.7894 22.6708 82.8776 20.7499 82.8776 18.3866C82.8776 16.0233 84.7894 14.1025 87.1469 14.1025C89.5044 14.1025 91.4162 16.0233 91.4162 18.3866C91.4162 20.7499 89.5044 22.6708 87.1469 22.6708Z" fill="black"/>
<path d="M106.023 9.67261C101.233 9.67261 97.3394 13.5845 97.3394 18.3866C97.3394 23.1888 101.238 27.1007 106.023 27.1007C110.808 27.1007 114.706 23.1888 114.706 18.3866C114.706 13.5845 110.808 9.67261 106.023 9.67261ZM106.023 22.6708C103.665 22.6708 101.754 20.7499 101.754 18.3866C101.754 16.0233 103.665 14.1025 106.023 14.1025C108.38 14.1025 110.292 16.0233 110.292 18.3866C110.292 20.7499 108.38 22.6708 106.023 22.6708Z" fill="black"/>
<path d="M124.894 9.67261C120.104 9.67261 116.21 13.5845 116.21 18.3866C116.21 23.1888 120.109 27.1007 124.894 27.1007C129.679 27.1007 133.577 23.1888 133.577 18.3866C133.577 13.5845 129.679 9.67261 124.894 9.67261ZM124.894 22.6708C122.536 22.6708 120.624 20.7499 120.624 18.3866C120.624 16.0233 122.536 14.1025 124.894 14.1025C127.251 14.1025 129.163 16.0233 129.163 18.3866C129.163 20.7499 127.251 22.6708 124.894 22.6708Z" fill="black"/>
<path d="M139.028 0.5H136.558C136.021 0.5 135.586 0.93705 135.586 1.47122V26.1619C135.586 26.7014 136.021 27.1331 136.558 27.1331H139.028C139.565 27.1331 140 26.696 140 26.1619V1.47122C140 0.931655 139.565 0.5 139.028 0.5Z" fill="black"/>
<path d="M16.6314 9.53247H14.0752C13.5489 9.53247 13.1193 9.96413 13.1193 10.4929V10.8166C11.8412 10.0882 10.3644 9.66736 8.79095 9.66736C3.9417 9.66736 0 13.6278 0 18.4947C0 23.3616 3.94169 27.3274 8.79632 27.3274C10.3698 27.3274 11.8466 26.9066 13.1247 26.1782V30.6188C13.1247 33.0145 11.1538 34.9569 8.75873 34.903C6.4603 34.849 4.58611 32.8418 4.58611 30.5325V29.5289C4.58611 29.0001 4.1565 28.5684 3.63023 28.5684H1.06329C0.537016 28.5684 0.107403 29.0001 0.107403 29.5289V30.4893C0.107403 35.1943 3.74837 39.1656 8.43115 39.3868C13.4415 39.6188 17.5873 35.599 17.5873 30.6188V10.4929C17.5873 9.96413 17.1577 9.53247 16.6314 9.53247ZM8.79095 22.8382C6.4066 22.8382 4.4626 20.8904 4.4626 18.4947C4.4626 16.099 6.40123 14.1512 8.79095 14.1512C11.1807 14.1512 13.1193 16.099 13.1193 18.4947C13.1193 20.8904 11.1807 22.8382 8.79095 22.8382Z" fill="black"/>
<path d="M69.1569 31.0395L65.9616 31.0017C65.5804 31.0017 65.2689 31.3039 65.2635 31.687L65.242 33.2895C65.2313 34.5575 66.2355 35.5988 67.5029 35.6096C68.7702 35.6204 69.8013 34.6114 69.812 33.3434L69.8335 31.7409C69.8335 31.3578 69.5328 31.0449 69.1515 31.0395H69.1569Z" fill="black"/>
<path d="M67.1002 9.23562C62.6429 9.45685 58.9698 13.1043 58.7066 17.572C58.5455 20.2644 59.5981 22.7302 61.3702 24.4622L61.3971 24.4946L64.5708 27.2788C64.8447 27.5216 65.1991 27.6511 65.5643 27.6511H69.5006C69.8658 27.6511 70.2202 27.5162 70.4941 27.2788L73.147 24.9479L73.2329 24.8777L73.5712 24.5756L73.5927 24.5648C75.3058 22.9407 76.3798 20.6475 76.3798 18.1061C76.3798 13.0612 72.1696 8.98742 67.0948 9.23562H67.1002ZM67.5352 13.9461C69.8121 13.9461 71.6702 15.8076 71.6702 18.1061C71.6702 20.4047 69.8121 22.2554 67.5352 22.2554C65.2582 22.2554 63.4001 20.3939 63.4001 18.1061C63.4001 15.8184 65.2582 13.9461 67.5352 13.9461Z" fill="black"/>
</g>
</g>
<defs>
<clipPath id="clip0_1439_124">
<rect width="140" height="40" fill="white"/>
</clipPath>
</defs>
</svg>
