<svg width="150" height="39" viewBox="0 0 150 39" fill="none" xmlns="http://www.w3.org/2000/svg">
<g clip-path="url(#clip0_1439_139)">
<path d="M17.6554 0.307387C18.1068 0.307387 18.4005 0.751847 18.2221 1.1741L8.50441 25.0912C8.38234 25.2703 8.29661 25.4208 8.26789 25.571C8.21058 25.7212 8.21026 25.8365 8.21026 25.958C8.21026 26.2235 8.3032 26.4384 8.4816 26.5823C8.66109 26.7327 8.86858 26.7897 9.0831 26.7897C9.20522 26.7897 9.35515 26.7617 9.49851 26.7042C9.64926 26.6465 9.82714 26.5528 10.0352 26.4378L14.9409 23.2493C15.4496 22.9198 16.231 22.5331 17.276 22.0608C18.3209 21.6162 19.4891 21.3737 20.8058 21.3737C22.2097 21.3737 23.3479 21.6389 24.2432 22.2114C25.1383 22.7776 25.7968 23.4941 26.2481 24.3897C26.6994 25.2853 26.9072 26.2672 26.9073 27.3695V33.8403C26.9073 34.2848 26.5494 34.614 26.1269 34.6143H20.2607C19.8095 34.6141 19.4804 34.2562 19.4804 33.8403V30.8882C19.4804 30.3797 19.3583 29.9348 19.1514 29.5478C18.9433 29.1607 18.5213 28.9812 17.8619 28.9812C17.6538 28.9812 17.4108 29.0392 17.1752 29.1319C16.9383 29.2182 16.6655 29.3688 16.3936 29.5767L10.8012 33.3666C10.0567 33.8465 9.21868 34.2631 8.38074 34.5564C7.51427 34.8569 6.61889 35 5.63137 35V34.9578C4.43552 34.9578 3.36195 34.6281 2.40294 34.0042C1.71585 33.5596 1.17837 32.9295 0.755707 32.213C0.247094 31.3174 0.00417209 30.3068 0.00412857 29.2331C-0.0245462 28.5453 0.0973234 27.8634 0.333094 27.2043C0.570083 26.545 1.37813 24.61 2.27327 22.7913L12.3919 0.665403C12.4854 0.457473 12.7218 0.307387 12.9587 0.307387H17.6554ZM44.5009 0.0289305C45.6702 0.0289466 46.7185 0.358659 47.6573 0.982434C48.3295 1.42708 48.8543 2.05742 49.2674 2.77492C49.7642 3.67052 49.9961 4.6813 49.9961 5.75598C50.0237 6.44351 49.9047 7.12476 49.6743 7.78353C49.4428 8.44244 48.6513 10.378 47.7774 12.1991L37.8928 34.3345C37.8013 34.5423 37.5707 34.6926 37.3393 34.6926H32.7471C32.3066 34.6924 32.0187 34.2479 32.1936 33.8259L41.6939 9.89908C41.8129 9.71994 41.897 9.56846 41.9257 9.41811C41.9817 9.26807 41.9821 9.15255 41.9821 9.03116C41.982 8.76587 41.8896 8.55182 41.7155 8.40795C41.5404 8.25777 41.3374 8.1994 41.1273 8.1994C41.0084 8.19948 40.8615 8.2287 40.7214 8.28621C40.5751 8.34374 40.4003 8.43653 40.198 8.5514L35.4027 11.741C34.9058 12.0704 34.1418 12.4574 33.1204 12.9308C32.0988 13.3754 30.9568 13.6191 29.6687 13.6191C28.2967 13.6191 27.1833 13.3537 26.3082 12.7801C25.4332 12.214 24.7894 11.4972 24.3475 10.6007C23.9068 9.70494 23.7041 8.72201 23.7041 7.61839V1.16084C23.7043 0.716421 24.0546 0.387012 24.4664 0.386946H30.1993C30.64 0.386946 30.9627 0.745137 30.9629 1.16084V4.11538C30.963 4.6238 31.0819 5.06888 31.2847 5.45583C31.4876 5.84256 31.9008 6.02113 32.5441 6.02117C32.7469 6.02117 32.9849 5.96327 33.2164 5.87049C33.4468 5.78417 33.7135 5.63464 33.9788 5.4269L39.4464 1.63457C40.175 1.15474 40.994 0.739109 41.8128 0.444807C42.6602 0.144111 43.5345 0 44.5009 0V0.0289305Z" fill="black"/>
<path d="M72.6584 6.58696V14.5173C72.6584 14.6478 72.5534 14.7565 72.4277 14.7565H63.5765C63.4506 14.7565 63.3458 14.6478 63.3458 14.5173V6.58696C63.3458 6.26523 63.0941 6 62.7796 6H59.5662C59.2558 6 59 6.26523 59 6.58696V27.4086C59 27.7304 59.2516 27.9955 59.5662 27.9955H62.7796C63.09 27.9955 63.3458 27.7304 63.3458 27.4086V19.4826C63.3458 19.3521 63.4506 19.2434 63.5765 19.2434H72.4235C72.5492 19.2434 72.6541 19.3521 72.6541 19.4826V27.413C72.6541 27.7347 72.9059 28 73.2204 28H76.4337C76.7484 28 77 27.7347 77 27.413V6.58696C77 6.26523 76.7484 6 76.4337 6H73.2204C72.9059 6 72.6541 6.26087 72.6541 6.58696H72.6584Z" fill="black"/>
<path d="M149.407 12H146.038C145.787 12 145.575 12.1552 145.493 12.3724C145.461 12.4434 145.444 12.5231 145.444 12.6029V12.6118C145.444 12.6428 145.444 12.6739 145.439 12.7005C145.422 13.002 145.193 13.0729 144.995 12.9531C144.348 12.5719 143.979 12.3502 143.319 12.2173C142.822 12.1197 142.383 12.0932 141.917 12.0932C137.544 12.0932 134.004 15.662 134 20.0732C134.074 24.4179 137.588 27.9114 141.917 27.9114C142.383 27.9114 142.822 27.8847 143.319 27.7873C143.979 27.6586 144.348 27.437 144.995 27.0557C145.206 26.9272 145.452 27.1445 145.444 27.3971C145.444 27.734 145.708 28 146.038 28H149.407C149.736 28 150 27.734 150 27.4015V12.5985C150 12.266 149.736 12 149.407 12ZM143.341 23.0923C143.341 23.0923 143.328 23.0923 143.324 23.0923C142.897 23.2919 142.418 23.4027 141.917 23.4027C140.026 23.4027 138.494 21.8598 138.494 19.958C138.494 18.056 140.026 16.5087 141.917 16.5087C143.131 16.5087 144.195 17.1472 144.801 18.1136L144.811 18.1225C145.141 18.6545 145.334 19.2841 145.334 19.958C145.334 21.3456 144.516 22.5426 143.341 23.0878V23.0923Z" fill="black"/>
<path d="M120.412 28H117.169C117.11 28 117.055 27.9912 117 27.9734C117.047 27.9912 117.093 28 117.144 28C117.152 28 117.165 28 117.174 28H120.416C120.416 28 120.433 28 120.446 28C120.467 28 120.488 28 120.505 27.9912C120.475 27.9956 120.45 28 120.416 28H120.412ZM120.581 27.9734C120.636 27.9557 120.687 27.9335 120.729 27.898C120.683 27.929 120.636 27.9557 120.581 27.9734ZM120.983 12.6031C120.983 12.6031 120.983 6.08868 120.983 6.08425C120.983 6.05321 120.983 6.02661 120.975 6C120.962 7.86695 120.928 12.6918 120.983 12.6696C120.987 12.6696 120.996 12.6651 121 12.6607C120.992 12.643 120.987 12.6252 120.987 12.6031H120.983Z" fill="black"/>
<path d="M132.166 16.6813C132.739 17.7781 133 19.0049 133 20.2361V27.4191C133 27.7399 132.735 28 132.404 28H129.027C128.767 28 128.546 27.8352 128.463 27.6098L128.437 20.2447C128.384 18.3807 126.902 16.8765 125.011 16.8765C124.508 16.8765 124.028 16.9848 123.6 17.1755C123.596 17.1755 123.591 17.1755 123.586 17.1799C122.405 17.7131 121.59 18.8836 121.59 20.2404V27.3368C121.576 27.3584 121.572 27.3844 121.572 27.4105C121.572 27.5708 121.506 27.7182 121.396 27.8222C121.369 27.8483 121.338 27.8742 121.307 27.8959C121.259 27.9263 121.21 27.9522 121.153 27.9696C121.14 27.974 121.127 27.9783 121.109 27.9783C121.096 27.9826 121.078 27.9869 121.065 27.9869C121.034 27.9912 121.008 27.9957 120.972 27.9957H117.595C117.533 27.9957 117.476 27.9869 117.419 27.9696C117.401 27.9653 117.384 27.961 117.366 27.9522C117.295 27.922 117.229 27.8785 117.176 27.8266C117.066 27.7225 117 27.5751 117 27.4148V6.58089C117 6.2601 117.265 6 117.6 6H120.977C121.277 6 121.523 6.21675 121.563 6.49852C121.55 8.32355 121.515 13.04 121.572 13.0183C121.576 13.0183 121.585 13.0139 121.59 13.0096C121.62 13.079 121.709 13.118 121.788 13.0876C122.392 12.8362 123.031 12.6586 123.701 12.5675C123.715 12.5675 123.728 12.5675 123.736 12.5631C124.182 12.4851 124.641 12.4461 125.108 12.4461C128.185 12.4461 130.852 14.1671 132.17 16.6813H132.166Z" fill="black"/>
<path d="M150 12V12.0237H146.557C146.31 12.0237 146.09 12.4285 146 13C146.085 12.4166 146.301 12 146.557 12H150Z" fill="black"/>
<path d="M114.951 19.2116C114.542 15.3808 111.46 12.327 107.723 12.0288C106.909 11.9657 106.153 12.0018 105.415 12.1824C105.322 12.205 105.226 12.2277 105.138 12.2547C105.107 12.2638 105.072 12.2683 105.041 12.2818C104.865 12.3406 104.711 12.4083 104.562 12.4897C104.192 12.6703 103.928 12.8645 103.783 12.9911C103.652 13.0588 103.581 12.982 103.572 12.8872C103.572 12.8872 103.568 12.8059 103.55 12.5935C103.515 12.2908 103.265 12.065 102.966 12.065H99.5979C99.2681 12.065 99 12.3406 99 12.6794V34.3946C99 34.7288 99.2681 35 99.5979 35H102.97C103.295 35 103.559 34.7288 103.559 34.3946V27.7541C103.55 27.4965 103.792 27.2751 104.008 27.4062C104.654 27.7947 105.023 28.0206 105.683 28.1515C106.18 28.251 106.619 28.278 107.085 28.278C111.75 28.278 115.474 24.1266 114.951 19.2206V19.2116ZM107.085 23.6793C106.58 23.6793 106.105 23.5664 105.674 23.3631C105.67 23.3631 105.665 23.3631 105.661 23.3631C104.483 22.8074 103.669 21.5877 103.669 20.1738C103.669 19.4871 103.858 18.8456 104.192 18.3036C104.192 18.2991 104.192 18.2991 104.201 18.2946C104.803 17.3097 105.872 16.6592 107.085 16.6592C108.972 16.6592 110.501 18.2313 110.501 20.1738C110.501 22.1163 108.972 23.6838 107.085 23.6838V23.6793Z" fill="black"/>
<path d="M95.8265 12.1738C95.7744 12.1203 95.7136 12.0758 95.6398 12.0446C95.6225 12.0357 95.6051 12.0311 95.5878 12.0267C95.5313 12.0089 95.4749 12 95.4141 12H92.0895C92.0591 12 92.0287 12 91.9983 12.0089C91.9853 12.0089 91.9679 12.0133 91.9549 12.0178C91.9418 12.0178 91.9289 12.0222 91.9116 12.0267C91.8551 12.0446 91.803 12.0713 91.7596 12.1024C91.7292 12.1248 91.7032 12.1516 91.6728 12.1782C91.5643 12.2852 91.4992 12.4368 91.4992 12.6018C91.4992 12.6284 91.4949 12.6552 91.4861 12.6776V20.0059V19.9792C91.4818 21.3789 90.6745 22.5825 89.5157 23.1262C89.5113 23.1262 89.507 23.1307 89.5026 23.1307C89.0816 23.3314 88.6086 23.4382 88.1138 23.4382C86.2475 23.4382 84.7413 21.887 84.7413 19.9746L84.7154 12.4011C84.6372 12.1649 84.4202 12 84.1598 12H80.8351C80.5139 12 80.2492 12.2719 80.2492 12.6018V19.9881C80.2492 21.254 80.5052 22.5156 81.0695 23.6434C82.3672 26.2288 84.9931 27.9985 88.0226 27.9985C88.4827 27.9985 88.9341 27.9584 89.3725 27.8781C89.3812 27.8781 89.3941 27.8781 89.4072 27.8736C90.0669 27.7801 90.6962 27.5973 91.2909 27.3387C91.369 27.3075 91.4558 27.3476 91.4861 27.419C91.4906 27.419 91.4992 27.4145 91.5035 27.4101C91.5122 27.4101 91.5686 33.9762 91.5686 33.9762C91.5686 34.1099 91.5079 34.2347 91.3994 34.3061C91.2691 34.3907 91.0174 34.3953 90.8873 34.3239L83.2483 30.0044C81.7206 29.1397 79.9063 29.1664 78.4002 30.0758C76.8942 30.9851 76 32.5944 76 34.3818V37.0074C76 37.2972 76.2301 37.5334 76.5122 37.5334H80.0495C80.3316 37.5334 80.5617 37.2972 80.5617 37.0074C80.5617 35.9866 80.5617 34.355 80.5617 34.355C80.5617 34.2214 80.6051 34.0966 80.7136 34.0253C80.7353 34.0118 80.7526 34.0029 80.7744 33.994C80.8742 33.9584 80.974 33.9717 81.0738 34.0297L88.7518 38.3714C89.494 38.7904 90.3056 39 91.1172 39C91.9722 39 92.8274 38.7682 93.5998 38.3001C95.0799 37.4041 95.9697 35.8395 96 34.0876V12.5928C96 12.4279 95.935 12.2763 95.8308 12.1693L95.8265 12.1738Z" fill="black"/>
</g>
<defs>
<clipPath id="clip0_1439_139">
<rect width="150" height="39" fill="white"/>
</clipPath>
</defs>
</svg>
