<svg width="229" height="31" viewBox="0 0 229 31" fill="none" xmlns="http://www.w3.org/2000/svg">
<g clip-path="url(#clip0_1439_163)">
<path d="M27.7276 12.4C27.3562 13.02 25.2519 16.12 23.6427 18.6L33.1741 17.236L33.9168 17.112C35.6497 16.864 36.2686 15.252 36.3924 14.88C38.373 10.54 40.3535 10.292 44.067 9.54801C51.9892 7.81201 55.7027 1.48801 55.7027 1.36401C51.2465 2.10801 44.6859 3.22401 44.6859 3.22401C32.5551 5.45601 29.8319 8.92801 27.7276 12.4Z" fill="black"/>
<path d="M30.6984 26.288C30.6984 26.288 41.22 25.048 45.0573 23.808C51.6178 21.576 53.8459 16.616 53.8459 16.616C53.8459 16.616 43.8194 17.732 39.3632 19.716C38.4967 20.088 35.6497 20.708 30.6984 26.288Z" fill="black"/>
<path d="M24.633 27.032C30.9459 24.056 32.5551 20.212 32.5551 20.212C32.5551 20.212 30.9459 20.336 28.7178 20.708L20.7957 21.824C20.053 22.816 18.6914 24.428 18.32 24.8C17.3297 25.916 16.7108 25.916 14.2351 26.164C13.6162 26.164 13.3686 25.792 13.74 25.048L16.3395 21.08C16.587 20.584 16.9584 20.088 17.0822 19.84L25.747 6.57202C17.3297 8.43202 11.8832 12.276 9.53135 15.872L0 31L22.7762 27.776C23.3951 27.528 24.1378 27.28 24.633 27.032Z" fill="black"/>
<path d="M67.9573 6.69604H66.2243V21.824H79.593V20.336H67.9573V6.69604Z" fill="black"/>
<path d="M83.8016 6.69604H82.0686V21.7H83.8016V6.69604Z" fill="black"/>
<path d="M86.8962 21.824H88.6292V14.88H100.265V13.516H88.6292V8.30804H100.884V6.69604H86.8962V21.824Z" fill="black"/>
<path d="M105.092 14.756H117.471V13.268H105.092V8.30804H117.842V6.69604H103.359V21.824H117.966V20.336H105.092V14.756Z" fill="black"/>
<path d="M154.358 13.392H143.342V6.69604H141.732V21.824H143.342V14.756H154.358V21.824H156.091V6.69604H154.358V13.392Z" fill="black"/>
<path d="M225.41 13.392H214.393V6.69604H212.784V21.824H214.393V14.756H225.41V21.824H227.143V6.69604H225.41V13.392Z" fill="black"/>
<path d="M173.792 15.996C173.792 19.592 171.317 22.072 166.365 22.072C161.414 22.072 158.938 19.592 158.938 15.996V6.69604H160.671V15.624C160.671 19.84 164.632 20.584 166.489 20.584C168.222 20.584 172.307 19.84 172.307 15.624V6.69604H174.04V15.996H173.792Z" fill="black"/>
<path d="M189.761 14.26C191.246 13.64 192.112 12.4 192.112 10.788C192.112 8.18404 190.379 6.69604 187.409 6.69604H176.516V21.7H178.249V14.88H186.914C189.389 14.88 190.379 16.368 190.379 18.724V21.824H192.112V18.476C192.112 16.12 191.122 14.88 189.761 14.26ZM187.656 13.392H178.249V8.30804H187.656C189.389 8.30804 190.379 9.17605 190.379 10.912C190.379 12.648 189.389 13.392 187.656 13.392Z" fill="black"/>
<path d="M131.335 20.708C129.354 20.708 124.65 19.84 124.65 14.26C124.65 8.80397 129.23 7.81197 131.335 7.81197C133.439 7.81197 136.657 8.67998 137.648 11.904H139.257C138.39 8.18398 134.924 6.32397 131.335 6.32397C126.755 6.32397 123.041 8.80397 123.041 14.136C123.041 19.468 126.755 21.948 131.335 21.948C134.924 21.948 138.019 20.584 139.257 16.74H137.524C136.534 19.84 133.315 20.708 131.335 20.708Z" fill="black"/>
<path d="M202.386 20.708C200.406 20.708 195.702 19.84 195.702 14.26C195.702 8.80397 200.282 7.81197 202.386 7.81197C204.491 7.81197 207.709 8.67998 208.699 11.904H210.309C209.442 8.18398 205.976 6.32397 202.386 6.32397C197.806 6.32397 194.093 8.80397 194.093 14.136C194.093 19.468 197.806 21.948 202.386 21.948C205.976 21.948 209.071 20.584 210.309 16.74H208.576C207.585 19.84 204.367 20.708 202.386 20.708Z" fill="black"/>
<path d="M122.051 19.9639H120.194V21.8239H122.051V19.9639Z" fill="black"/>
</g>
<defs>
<clipPath id="clip0_1439_163">
<rect width="229" height="31" fill="white"/>
</clipPath>
</defs>
</svg>
