<svg width="148" height="33" viewBox="0 0 148 33" fill="none" xmlns="http://www.w3.org/2000/svg">
<g clip-path="url(#clip0_1439_195)">
<path d="M46.5725 14.0425C47.455 12.3574 48.6771 11.0234 50.1706 10.1106C51.6642 9.19783 53.3615 8.70634 55.2624 8.70634C57.1633 8.70634 58.3853 9.0574 59.6073 9.68932C60.8294 10.3914 61.8477 11.234 62.5945 12.217V9.0574H67.0073V30.9638H62.5945V27.734C61.8477 28.7872 60.8294 29.6297 59.5394 30.3319C58.2495 31.034 56.8238 31.3851 55.1266 31.3851C53.4294 31.3851 51.6642 30.8936 50.1028 29.9106C48.6092 28.9276 47.3872 27.5936 46.5046 25.8383C45.622 24.0829 45.1468 22.117 45.1468 19.9404C45.1468 17.7638 45.622 15.7978 46.5046 14.1127L46.5725 14.0425ZM61.644 16.0085C61.033 14.8851 60.2183 14.0425 59.2679 13.4808C58.3174 12.9191 57.2312 12.6383 56.1449 12.6383C55.0587 12.6383 53.9725 12.9191 53.022 13.4808C52.0716 14.0425 51.2569 14.8851 50.6459 16.0085C50.0349 17.1319 49.7633 18.3957 49.7633 19.9404C49.7633 21.4851 50.0349 22.7489 50.6459 23.9425C51.2569 25.0659 52.0716 25.9787 53.022 26.5404C54.0404 27.1723 55.0587 27.4531 56.1449 27.4531C57.2312 27.4531 58.3174 27.1723 59.2679 26.6106C60.2183 26.0489 61.033 25.2063 61.644 24.0127C62.255 22.8893 62.5266 21.5553 62.5266 20.0808C62.5266 18.6063 62.255 17.2723 61.644 16.1489V16.0085ZM79.0239 26.8914L84.9982 8.98719H89.6826L81.6037 30.8936H76.3761L68.3651 8.98719H73.0495L79.0239 26.8914ZM90.1578 14.0425C91.0404 12.3574 92.2624 11.0234 93.756 10.1106C95.2495 9.19783 96.9468 8.70634 98.8477 8.70634C100.749 8.70634 101.971 9.0574 103.193 9.68932C104.415 10.3914 105.433 11.234 106.18 12.217V9.0574H110.593V30.9638H106.18V27.734C105.433 28.7872 104.415 29.6297 103.125 30.3319C101.835 31.034 100.409 31.3851 98.7119 31.3851C97.0147 31.3851 95.2495 30.8936 93.6881 29.9106C92.1945 28.9276 90.9725 27.5936 90.0899 25.8383C89.2073 24.0829 88.7321 22.117 88.7321 19.9404C88.7321 17.7638 89.2073 15.7978 90.0899 14.1127L90.1578 14.0425ZM105.297 16.0085C104.686 14.8851 103.872 14.0425 102.921 13.4808C101.971 12.9191 100.884 12.6383 99.7982 12.6383C98.7119 12.6383 97.6257 12.9191 96.6752 13.4808C95.7248 14.0425 94.9101 14.8851 94.2991 16.0085C93.6881 17.1319 93.4165 18.3957 93.4165 19.9404C93.4165 21.4851 93.6881 22.7489 94.2991 23.9425C94.9101 25.0659 95.7248 25.9787 96.6752 26.5404C97.6936 27.1723 98.7119 27.4531 99.7982 27.4531C100.884 27.4531 101.971 27.1723 102.921 26.6106C103.872 26.0489 104.686 25.2063 105.297 24.0127C105.908 22.8893 106.18 21.5553 106.18 20.0808C106.18 18.6063 105.908 17.2723 105.297 16.1489V16.0085ZM129.67 9.75953C130.96 10.4617 132.046 11.5148 132.793 12.9191C133.539 14.3234 133.879 16.0085 133.879 18.0446V30.9638H129.534V18.6766C129.534 16.7106 129.059 15.2361 128.108 14.1829C127.158 13.1297 125.868 12.6383 124.239 12.6383C122.609 12.6383 121.319 13.1297 120.301 14.1829C119.35 15.2361 118.875 16.7106 118.875 18.6766V30.9638H114.462V9.0574H118.875V11.5851C119.622 10.6723 120.505 9.97017 121.659 9.47868C122.745 8.98719 123.967 8.70634 125.189 8.70634C126.411 8.70634 128.38 9.0574 129.67 9.75953ZM142.637 12.7085V24.8553C142.637 25.6978 142.84 26.2595 143.18 26.6106C143.519 26.9617 144.198 27.1723 145.081 27.1723H147.796V30.9638H144.334C142.365 30.9638 140.872 30.4723 139.785 29.5595C138.699 28.5765 138.224 27.0319 138.224 24.9255V12.7787H135.712V9.0574H138.224V3.58081H142.637V9.0574H147.796V12.7787H142.637V12.7085ZM31.0257 17.7638V23.6617L17.9908 0.140381L0 32.5787H5.63486L10.9982 22.8191H21.7927L18.9413 17.7638H13.8495L17.9908 10.3212L30.3468 32.5787H36.0495V17.7638H31.0257Z" fill="black"/>
</g>
<defs>
<clipPath id="clip0_1439_195">
<rect width="148" height="33" fill="white"/>
</clipPath>
</defs>
</svg>
