<svg width="196" height="28" viewBox="0 0 196 28" fill="none" xmlns="http://www.w3.org/2000/svg">
<g clip-path="url(#clip0_1439_199)">
<path d="M42.3 16.3C41.4 16.3 40.6 16 40.1 15.8C39.7 15.6 39.4 15.1 39.4 14.6V10.6C39.4 10.3 39.5 10.1 39.6 9.9C39.8 9.5 40.8 8.4 42.4 8.4C44.4 8.4 45.8 10 45.8 12.4C45.8 14.7 44.4 16.3 42.3 16.3ZM42.8 5.9C40.9 5.9 39.7 6.7 38.9 7.4L38.8 7.5L38.6 6.5C38.5 6.3 38.4 6.2 38.1 6.2H36.9C36.6 6.2 36.4 6.4 36.4 6.7V23.7C36.4 24 36.7 24.3 37 24.3H38.7C39.1 24.3 39.4 24.1 39.4 23.7L39.5 18.1C40.5 18.6 41.5 18.9 42.6 18.9C46 18.9 48.6 16.1 48.6 12.4C48.7 8.7 46.1 5.9 42.8 5.9ZM121.1 15.3C121.1 15.8 120.8 16.2 120.4 16.5C119.9 16.7 119.2 17 118.2 17C116.1 17 114.7 15.4 114.7 13.1C114.7 10.7 116.1 9.1 118.1 9.1C119.8 9.1 120.7 10.2 120.9 10.6C121 10.8 121.1 11.1 121.1 11.3V15.3ZM123.4 6.8H122.2C122 6.8 121.8 6.9 121.7 7.1L121.5 8C120.9 7.4 119.7 6.5 117.6 6.5C114.3 6.5 111.8 9.3 111.8 13C111.8 16.7 114.4 19.5 117.8 19.5C118.8 19.5 119.9 19.2 121 18.7V18.9C121.1 19.7 120.8 20.4 120.2 21.1C119.5 21.9 118.4 22.3 116.9 22.3C115.7 22.3 114.6 21.8 114.1 21.4C114 21.4 113.9 21.3 113.9 21.3C113.7 21.3 113.6 21.4 113.5 21.5L112.9 22.7C112.8 22.9 112.8 23.1 113 23.3C113.4 23.5 115.3 24.8 117.6 24.8H117.8C121.5 24.7 124 22.5 124 19.3V7.3C123.9 7 123.7 6.8 123.4 6.8ZM109.7 18.3C110 18.3 110.3 18 110.3 17.7V12C110.3 7.3 107.2 6.5 105.4 6.5C103.2 6.5 101.8 7.6 101.3 7.9L101 7.1C100.9 6.9 100.7 6.7 100.5 6.7H99.7C99.3 6.8 99 7 99 7.4V17.7C99 18 99.3 18.3 99.6 18.3H101.1C101.6 18.3 101.8 18.1 101.8 17.7V10.7C102 10.2 103.3 9 105 9C106.5 9 107.4 10 107.4 11.8V17.6C107.4 17.9 107.7 18.2 108 18.2L109.7 18.3ZM96 18.3C96.3 18.3 96.6 18 96.6 17.7V7.4C96.6 7.1 96.3 6.8 96 6.8H94.3C94 6.8 93.7 7.1 93.7 7.4V17.7C93.7 18 94 18.3 94.3 18.3H96ZM96.9 3.2C96.9 2.2 96.1 1.5 95.1 1.5C94.1 1.5 93.4 2.3 93.4 3.2C93.4 4.2 94.2 4.9 95.1 4.9C96.1 4.9 96.9 4.1 96.9 3.2ZM90.9 18.3C91.2 18.3 91.5 18 91.5 17.7V12C91.5 8.5 89.7 6.5 86.6 6.5C84.4 6.5 83 7.6 82.5 7.9L82.2 7.1C82.1 6.9 81.9 6.7 81.7 6.7H80.9C80.6 6.7 80.3 7 80.3 7.3V17.6C80.3 17.9 80.6 18.2 80.9 18.2H82.4C82.9 18.2 83.1 18 83.1 17.6V10.6C83.3 10.1 84.6 8.9 86.3 8.9C87.8 8.9 88.7 9.9 88.7 11.7V17.5C88.7 17.8 89 18.1 89.3 18.1H90.9V18.3ZM77.4 18.3C77.7 18.3 78 18 78 17.7V12C78 8.5 76.2 6.5 73.1 6.5C71 6.5 69.6 7.5 69 7.9L68.7 7.1C68.6 6.9 68.4 6.7 68.2 6.7H67.4C67.1 6.7 66.8 7 66.8 7.3V17.6C66.8 17.9 67.1 18.2 67.4 18.2H68.9C69.4 18.2 69.6 18 69.6 17.6V10.6C69.8 10.1 71.1 8.9 72.8 8.9C74.3 8.9 75.2 9.9 75.2 11.7V17.5C75.2 17.8 75.5 18.1 75.8 18.1H77.4V18.3ZM62.3 15.1C61.9 15.7 60.9 16.5 59.7 16.5C58.7 16.5 58 15.8 58 14.7C58 13.6 58.9 12.9 60.3 12.9C61.2 12.9 62 13.2 62.3 13.4V15.1ZM60.8 6.5C58.5 6.5 56.8 7.2 56.7 7.2C56.4 7.3 56.2 7.6 56.3 7.9L56.5 9C56.6 9.3 56.8 9.5 57.1 9.5H57.3C58.5 9.2 59.6 9 60.6 9C61.2 9 61.6 9.1 61.9 9.4C62.2 9.7 62.4 10.3 62.3 11.4C61.9 11.2 61 11 60 11C57.2 11 55.3 12.5 55.3 14.7C55.3 17 56.8 18.6 59.1 18.6C60.4 18.6 61.6 18.2 62.7 17.3L62.9 17.9C63 18.2 63.1 18.3 63.4 18.3H64.2C64.5 18.3 64.8 18 64.8 17.7V11.6C64.9 8.8 64.6 6.5 60.8 6.5ZM53.8 18.3C54 18.3 54.2 18.1 54.2 17.9V15.8C54.2 15.6 54 15.4 53.8 15.4H53.6C53.3 15.4 53 15.1 53 14.8V3.4C53 3.1 52.7 2.8 52.4 2.8H50.7C50.4 2.8 50.1 3.1 50.1 3.4V16.4C50.1 17.4 51 18.2 52 18.2H53.8V18.3ZM189.2 18.3C189.6 18.3 190 18.3 190 17.7V10.5C190.1 10.3 190.9 9.2 192.6 9.2C193 9.2 193.4 9.3 193.6 9.4C193.7 9.4 193.8 9.5 193.9 9.5C194.1 9.5 194.3 9.4 194.4 9.2L195.1 7.8C195.2 7.6 195.2 7.4 195.1 7.3C194.8 6.9 193.8 6.7 193 6.7C191.1 6.7 190.1 7.7 189.6 8.2L189.4 7.5C189.3 7.3 189.1 7.1 188.9 7.1H188C187.7 7.1 187.4 7.4 187.4 7.7V18C187.4 18.3 187.7 18.6 188 18.6H189.2V18.3ZM177.5 11.1C177.7 9.7 178.9 8.8 180.4 8.8C181.7 8.8 182.9 9.8 183 11.2L177.5 11.1ZM180.4 6.5C177 6.5 174.5 9.1 174.5 12.5C174.5 15.9 177.1 18.5 180.4 18.5C182.1 18.5 183.7 18 184.8 17.1C185 17 185 16.8 185.1 16.7C185.1 16.5 185 16.4 184.9 16.3L184.1 15.2C184 15.1 183.9 15 183.8 15C183.6 15 183.5 15.1 183.3 15.2C182.8 15.5 181.8 16 180.7 16C178.8 16 177.6 14.5 177.5 13.1H185.3C185.6 13.1 185.8 12.9 185.9 12.6C185.9 12.4 186 12 186 11.8C185.8 8.8 183.5 6.5 180.4 6.5ZM173.8 17.7C174.1 17.5 174.2 17.3 174.1 17L173.6 15.7C173.5 15.6 173.5 15.4 173.3 15.4H173.2C173.1 15.4 173 15.4 172.9 15.5C172.4 15.7 171.7 16 171.1 16C170.7 16 170.2 15.9 170.2 14.9L170.3 9.3H173.2C173.5 9.3 173.8 9 173.8 8.7V7.4C173.8 7.1 173.5 6.8 173.2 6.8L170.3 6.7V3.2C170.3 2.9 170 2.6 169.7 2.6H168C167.7 2.6 167.4 2.9 167.4 3.2L167.3 6.7H166.2C165.9 6.7 165.6 7 165.6 7.3V8.6C165.6 8.9 165.9 9.2 166.2 9.2L167.4 9.3V15.1C167.4 16.6 167.7 18.5 170.4 18.5C171.8 18.5 173.5 17.8 173.8 17.7ZM164.3 18.3C164.6 18.3 164.9 18 164.9 17.7V12C164.9 8.5 163.1 6.5 160 6.5C157.9 6.5 156.4 7.6 155.9 7.9L155.6 7.1C155.5 6.9 155.3 6.7 155.1 6.7H154.3C154 6.7 153.7 7 153.7 7.3V17.6C153.7 17.9 154 18.2 154.3 18.2H155.8C156.3 18.2 156.5 18 156.5 17.6V10.6C156.7 10.1 158 8.9 159.7 8.9C161.2 8.9 162.1 9.9 162.1 11.7V17.5C162.1 17.8 162.4 18.1 162.7 18.1H164.3V18.3ZM143.4 11.1C143.6 9.7 144.8 8.8 146.3 8.8C147.6 8.8 148.8 9.8 148.9 11.2L143.4 11.1ZM146.3 6.5C142.9 6.5 140.4 9.1 140.4 12.5C140.4 15.9 142.9 18.5 146.3 18.5C148 18.5 149.6 18 150.7 17.1C150.9 17 150.9 16.8 151 16.7C151 16.5 150.9 16.4 150.8 16.3L150 15.2C149.9 15.1 149.8 15 149.7 15C149.5 15 149.4 15.1 149.2 15.2C148.7 15.5 147.7 16 146.6 16C144.7 16 143.4 14.5 143.4 13.1H151.2C151.5 13.1 151.7 12.9 151.8 12.6C151.8 12.4 151.9 12 151.9 11.8C151.7 8.8 149.4 6.5 146.3 6.5ZM135.2 18.5C131.8 18.5 129 15.8 129 12.5C129 9.2 131.8 6.4 135.2 6.4C137 6.4 138.4 7.1 139.5 8.4C139.6 8.5 139.7 8.7 139.6 8.9C139.6 9.1 139.5 9.2 139.3 9.3L138.3 10.2C138.2 10.3 138.1 10.4 137.9 10.4C137.7 10.4 137.6 10.3 137.5 10.2C136.8 9.5 136 9.1 135.1 9.1C133.2 9.1 131.8 10.6 131.8 12.6C131.8 14.6 133.3 16.1 135.1 16.1C136.4 16.1 137 15.5 137.6 15L137.8 14.8C137.9 14.7 138.1 14.6 138.3 14.6C138.4 14.6 138.6 14.7 138.7 14.8L139.5 15.4C139.8 15.7 139.9 16 139.7 16.3C138.7 17.7 137.1 18.5 135.2 18.5Z" fill="black"/>
<path d="M23.9 2.8001C25.8 3.3001 27 5.1001 27 7.0001V20.3001C27 22.2001 25.7 23.9001 23.9 24.5001L15.7 27.0001C14.3 27.4001 12.7 27.4001 11.3 27.0001L3.1 24.6001C1.3 24.0001 0 22.2001 0 20.3001V7.0001C0 5.1001 1.3 3.4001 3.1 2.8001L11.3 0.400098C12.7 9.76622e-05 14.3 9.76622e-05 15.7 0.400098L23.9 2.8001Z" fill="black"/>
<path d="M18.5 7.80005L13.7 9.20005C13.5 9.20005 13.4 9.30005 13.2 9.20005L8.4 7.80005C7.4 7.50005 6.5 8.20005 6.5 9.20005V20.0001C6.5 20.2001 6.6 20.4001 6.8 20.4001L8.6 20.9001C8.9 21.0001 9.1 20.8001 9.1 20.5001V18.0001C9.1 18.0001 9.1 17.9001 9.2 17.9001L12.8 19.0001C13.3 19.1001 13.8 19.1001 14.2 19.0001L19.6 17.3001C20.2 17.2001 20.5 16.8001 20.5 16.3001V9.30005C20.5 8.30005 19.5 7.50005 18.5 7.80005ZM17.9 15.0001C17.9 15.1001 17.8 15.2001 17.7 15.2001L13.8 16.4001C13.6 16.5001 13.4 16.5001 13.2 16.4001L9.4 15.3001C9.3 15.3001 9.2 15.2001 9.2 15.1001V11.1001C9.2 11.0001 9.3 10.9001 9.5 10.9001L12.6 11.8001C13.2 12.0001 13.9 12.0001 14.5 11.8001L17.6 10.9001C17.7 10.9001 17.9 11.0001 17.9 11.1001V15.0001Z" fill="white"/>
</g>
<defs>
<clipPath id="clip0_1439_199">
<rect width="196" height="28" fill="white"/>
</clipPath>
</defs>
</svg>
