<svg width="214" height="39" viewBox="0 0 214 39" fill="none" xmlns="http://www.w3.org/2000/svg">
<g clip-path="url(#clip0_1439_182)">
<path d="M33.7533 23.5848C34.4417 22.405 36.1509 22.405 36.8318 23.5848L44.1461 36.1602C44.8344 37.3403 43.9722 38.8093 42.6029 38.8093H27.9746C26.6054 38.8093 25.7506 37.3403 26.4315 36.1602L33.7457 23.5848H33.7533Z" fill="black"/>
<path d="M29.3353 15.2112C30.001 14.0389 30.001 12.5926 29.3353 11.4127L23.3373 0.884927C22.6641 -0.294976 20.985 -0.294976 20.3117 0.884927L0.237207 36.1526C-0.435977 37.3324 0.403611 38.8092 1.74998 38.8092H13.7387C15.0775 38.8092 16.3104 38.086 16.976 36.9139L29.3278 15.2112H29.3353Z" fill="black"/>
<path d="M70.8244 35.871V38.8094H69.0848C67.0048 38.8094 66.2257 37.9034 66.1954 36.3658C65.1364 37.9262 63.4876 38.992 61.0065 38.992C57.5574 38.992 55.1597 37.2716 55.1597 34.3028C55.1597 30.9838 57.4893 29.1722 61.9066 29.1722H65.8549V28.2054C65.8549 26.4242 64.5843 25.328 62.4058 25.328C60.4468 25.328 59.1459 26.2644 58.8962 27.6726H55.5681C55.9388 24.5744 58.5482 22.6028 62.5647 22.6028C66.5811 22.6028 69.183 24.6352 69.183 28.4186V34.828C69.183 35.6426 69.4628 35.8634 70.174 35.8634H70.8244V35.871ZM65.8549 31.6766H61.7553C59.7056 31.6766 58.5559 32.4608 58.5559 34.082C58.5559 35.4294 59.6753 36.3658 61.4754 36.3658C64.2136 36.3658 65.8549 34.7062 65.8549 32.3008V31.6766Z" fill="black"/>
<path d="M78.1303 38.8092L72.1017 22.793H75.7096L80.2483 35.1782L84.7557 22.793H88.2959L82.2372 38.8092H78.138H78.1303Z" fill="black"/>
<path d="M105.437 35.871V38.8094H103.698C101.618 38.8094 100.839 37.9034 100.809 36.3658C99.7495 37.9262 98.1008 38.992 95.6199 38.992C92.1709 38.992 89.7732 37.2716 89.7732 34.3028C89.7732 30.9838 92.1023 29.1722 96.52 29.1722H100.468V28.2054C100.468 26.4242 99.1973 25.328 97.0193 25.328C95.0599 25.328 93.7594 26.2644 93.5094 27.6726H90.1811C90.5519 24.5744 93.1615 22.6028 97.1781 22.6028C101.194 22.6028 103.796 24.6352 103.796 28.4186V34.828C103.796 35.6426 104.076 35.8634 104.787 35.8634H105.437V35.871ZM100.46 31.6766H96.3612C94.3115 31.6766 93.1615 32.4608 93.1615 34.082C93.1615 35.4294 94.2812 36.3658 96.0808 36.3658C98.8197 36.3658 100.46 34.7062 100.46 32.3008V31.6766Z" fill="black"/>
<path d="M120.806 35.841V38.8099H107.879V35.841H112.682V20.0989L107.879 21.6975V18.7135L111.987 17.1301H116.041V35.8488H120.813L120.806 35.841Z" fill="black"/>
<path d="M138.71 35.871V38.8094H136.971C134.891 38.8094 134.111 37.9034 134.081 36.3658C133.023 37.9262 131.373 38.992 128.892 38.992C125.443 38.992 123.045 37.2716 123.045 34.3028C123.045 30.9838 125.375 29.1722 129.792 29.1722H133.741V28.2054C133.741 26.4242 132.47 25.328 130.292 25.328C128.333 25.328 127.032 26.2644 126.782 27.6726H123.454C123.825 24.5744 126.434 22.6028 130.45 22.6028C134.467 22.6028 137.069 24.6352 137.069 28.4186V34.828C137.069 35.6426 137.349 35.8634 138.06 35.8634H138.71V35.871ZM133.741 31.6766H129.641C127.592 31.6766 126.441 32.4608 126.441 34.082C126.441 35.4294 127.561 36.3658 129.362 36.3658C132.1 36.3658 133.741 34.7062 133.741 32.3008V31.6766Z" fill="black"/>
<path d="M156.683 29.6746V38.8094H153.294V29.9866C153.294 27.1398 152.084 25.5792 149.686 25.5792C147.167 25.5792 145.647 27.4214 145.647 30.5196V38.8094H142.289V22.793H145.208L145.579 24.8864C146.54 23.638 148.037 22.6028 150.458 22.6028C153.846 22.6028 156.675 24.445 156.675 29.6746H156.683Z" fill="black"/>
<path d="M160.805 30.8316C160.805 25.8912 163.944 22.6028 168.731 22.6028C172.801 22.6028 175.35 24.8864 175.97 28.5176H172.461C172.022 26.6372 170.691 25.4802 168.671 25.4802C166.001 25.4802 164.223 27.703 164.223 30.8316C164.223 33.9602 165.993 36.1146 168.671 36.1146C170.66 36.1146 172.029 34.927 172.43 33.0772H175.97C175.38 36.7082 172.673 38.992 168.633 38.992C163.846 38.992 160.797 35.8328 160.797 30.8316H160.805Z" fill="black"/>
<path d="M194.553 29.6748V38.8094H191.165V29.9564C191.165 27.2006 189.954 25.5794 187.466 25.5794C184.977 25.5794 183.366 27.4596 183.366 30.4892V38.8094H180.008V16.9165H183.366V24.8334C184.456 23.4556 186.104 22.6106 188.245 22.6106C191.974 22.6106 194.553 24.8334 194.553 29.6824V29.6748Z" fill="black"/>
<path d="M202.034 31.5857V31.7456C202.125 34.4631 203.804 36.252 206.414 36.252C208.403 36.252 209.923 35.2166 210.362 33.4354H213.72C213.16 36.5946 210.52 39.0001 206.603 39.0001C201.633 39.0001 198.524 35.7496 198.524 30.8396C198.524 25.9298 201.633 22.6108 206.263 22.6108C210.89 22.6108 213.91 25.549 214 30.2458C214 30.5884 213.969 31.1212 213.91 31.5932H202.034V31.5857ZM202.155 29.0509H210.512C210.234 26.6756 208.615 25.3285 206.285 25.3285C204.205 25.3285 202.397 26.7671 202.148 29.0509H202.155Z" fill="black"/>
</g>
<defs>
<clipPath id="clip0_1439_182">
<rect width="214" height="39" fill="white"/>
</clipPath>
</defs>
</svg>
